<svg aria-hidden="true" style="width: 0px; height: 0px; overflow: hidden; position: absolute;" xmlns="http://www.w3.org/2000/svg">
    <symbol id="menu-icon" viewBox="0 -960 960 960">
      <path d="M120-240v-80h720v80H120Zm0-200v-80h720v80H120Zm0-200v-80h720v80H120Z"/>
    </symbol>
    <symbol id="arrow-right-icon" viewBox="0 -960 960 960">
      <path d="M647-440H160v-80h487L423-744l57-56 320 320-320 320-57-56 224-224Z"/>
    </symbol>
    <symbol id="home-icon" viewBox="0 -960 960 960">
      <path d="M240-200h120v-240h240v240h120v-360L480-740 240-560v360Zm-80 80v-480l320-240 320 240v480H520v-240h-80v240H160Zm320-350Z"/>
    </symbol>
    <symbol id="pin-icon" viewBox="0 -960 960 960">
      <path d="M536.5-503.5Q560-527 560-560t-23.5-56.5Q513-640 480-640t-56.5 23.5Q400-593 400-560t23.5 56.5Q447-480 480-480t56.5-23.5ZM480-186q122-112 181-203.5T720-552q0-109-69.5-178.5T480-800q-101 0-170.5 69.5T240-552q0 71 59 162.5T480-186Zm0 106Q319-217 239.5-334.5T160-552q0-150 96.5-239T480-880q127 0 223.5 89T800-552q0 100-79.5 217.5T480-80Zm0-480Z"/>
    </symbol>
    <symbol id="max-icon" viewBox="0 0 1000 1000">
      <path fill-rule="evenodd" clip-rule="evenodd" d="M508.212 878.328C433.205 878.328 398.348 867.378 337.759 823.578C299.434 872.853 178.073 911.361 172.78 845.478C172.78 796.022 161.83 754.23 149.42 708.605C134.638 652.395 117.848 589.798 117.848 499.097C117.848 282.471 295.602 119.5 506.205 119.5C716.99 119.5 882.152 290.501 882.152 501.104C882.859 708.45 715.557 877.222 508.212 878.328ZM511.315 306.743C408.751 301.451 328.816 372.443 311.114 483.767C296.514 575.929 322.429 688.165 344.511 694.005C355.096 696.56 381.741 675.025 398.348 658.418C425.809 677.389 457.788 688.783 491.058 691.45C597.331 696.562 688.138 615.656 695.273 509.5C699.427 403.118 617.603 313.014 511.315 306.926V306.743Z"/>
    </symbol>
    <symbol id="tg-icon" viewBox="0 0 24 24">
      <path d="M21,4.1l-3,15.7c0,0-0.4,1.1-1.6,0.6l-6.9-5.5l0,0c0.9-0.9,8.2-7.6,8.5-7.9c0.5-0.5,0.2-0.8-0.4-0.4L6.9,13.6l-4.1-1.4c0,0-0.7-0.2-0.7-0.8c-0.1-0.5,0.7-0.8,0.7-0.8l16.9-6.9C19.6,3.7,21,3.1,21,4.1z"/>
    </symbol>
    <symbol id="vk-icon" viewBox="0 0 24 24">
      <path d="M12.9825 19C5.46596 19 1.17864 13.7447 1 5H4.76515C4.88882 11.4184 7.66459 14.1371 9.86321 14.6977V5H13.4085V10.5355C15.5796 10.2973 17.8607 7.77477 18.6302 5H22.1755C21.8855 6.43908 21.3075 7.80165 20.4776 9.0025C19.6477 10.2033 18.5837 11.2166 17.3523 11.979C18.7269 12.6756 19.941 13.6615 20.9145 14.8717C21.888 16.082 22.5988 17.489 23 19H19.0974C18.7373 17.6876 18.0054 16.5128 16.9934 15.6228C15.9814 14.7328 14.7343 14.1673 13.4085 13.997V19H12.9825Z"/>
    </symbol>
</svg>
