<svg aria-hidden="true" style="width: 0px; height: 0px; overflow: hidden; position: absolute;" xmlns="http://www.w3.org/2000/svg">
    <symbol id="menu-icon" viewBox="0 -960 960 960">
      <path d="M120-240v-80h720v80H120Zm0-200v-80h720v80H120Zm0-200v-80h720v80H120Z"/>
    </symbol>
    <symbol id="arrow-right-icon" viewBox="0 -960 960 960">
      <path d="M647-440H160v-80h487L423-744l57-56 320 320-320 320-57-56 224-224Z"/>
    </symbol>
    <symbol id="home-icon" viewBox="0 -960 960 960">
      <path d="M240-200h120v-240h240v240h120v-360L480-740 240-560v360Zm-80 80v-480l320-240 320 240v480H520v-240h-80v240H160Zm320-350Z"/>
    </symbol>
    <symbol id="pin-icon" viewBox="0 -960 960 960">
      <path d="M536.5-503.5Q560-527 560-560t-23.5-56.5Q513-640 480-640t-56.5 23.5Q400-593 400-560t23.5 56.5Q447-480 480-480t56.5-23.5ZM480-186q122-112 181-203.5T720-552q0-109-69.5-178.5T480-800q-101 0-170.5 69.5T240-552q0 71 59 162.5T480-186Zm0 106Q319-217 239.5-334.5T160-552q0-150 96.5-239T480-880q127 0 223.5 89T800-552q0 100-79.5 217.5T480-80Zm0-480Z"/>
    </symbol>
    <symbol id="max-icon" viewBox="0 0 1000 1000">
      <path fill-rule="evenodd" clip-rule="evenodd" d="M508.212 878.328C433.205 878.328 398.348 867.378 337.759 823.578C299.434 872.853 178.073 911.361 172.78 845.478C172.78 796.022 161.83 754.23 149.42 708.605C134.638 652.395 117.848 589.798 117.848 499.097C117.848 282.471 295.602 119.5 506.205 119.5C716.99 119.5 882.152 290.501 882.152 501.104C882.859 708.45 715.557 877.222 508.212 878.328ZM511.315 306.743C408.751 301.451 328.816 372.443 311.114 483.767C296.514 575.929 322.429 688.165 344.511 694.005C355.096 696.56 381.741 675.025 398.348 658.418C425.809 677.389 457.788 688.783 491.058 691.45C597.331 696.562 688.138 615.656 695.273 509.5C699.427 403.118 617.603 313.014 511.315 306.926V306.743Z"/>
    </symbol>
    <symbol id="tg-icon" viewBox="0 0 24 24">
      <path d="M21,4.1l-3,15.7c0,0-0.4,1.1-1.6,0.6l-6.9-5.5l0,0c0.9-0.9,8.2-7.6,8.5-7.9c0.5-0.5,0.2-0.8-0.4-0.4L6.9,13.6l-4.1-1.4c0,0-0.7-0.2-0.7-0.8c-0.1-0.5,0.7-0.8,0.7-0.8l16.9-6.9C19.6,3.7,21,3.1,21,4.1z"/>
    </symbol>
    <symbol id="vk-icon" viewBox="0 0 24 24">
      <path d="M12.9825 19C5.46596 19 1.17864 13.7447 1 5H4.76515C4.88882 11.4184 7.66459 14.1371 9.86321 14.6977V5H13.4085V10.5355C15.5796 10.2973 17.8607 7.77477 18.6302 5H22.1755C21.8855 6.43908 21.3075 7.80165 20.4776 9.0025C19.6477 10.2033 18.5837 11.2166 17.3523 11.979C18.7269 12.6756 19.941 13.6615 20.9145 14.8717C21.888 16.082 22.5988 17.489 23 19H19.0974C18.7373 17.6876 18.0054 16.5128 16.9934 15.6228C15.9814 14.7328 14.7343 14.1673 13.4085 13.997V19H12.9825Z"/>
    </symbol>
    <symbol id="close-icon" viewBox="0 -960 960 960">
      <path d="M480-424 284-228q-11 11-28 11t-28-11q-11-11-11-28t11-28l196-196-196-196q-11-11-11-28t11-28q11-11 28-11t28 11l196 196 196-196q11-11 28-11t28 11q11 11 11 28t-11 28L536-480l196 196q11 11 11 28t-11 28q-11 11-28 11t-28-11L480-424Z"/>
    </symbol>
    <symbol id="plus-icon" viewBox="0 -960 960 960">
      <path d="M440-440H200v-80h240v-240h80v240h240v80H520v240h-80v-240Z"/>
    </symbol>
    <symbol id="minus-icon" viewBox="0 -960 960 960">
      <path d="M200-440v-80h560v80H200Z"/>
    </symbol>
    <symbol id="arrow-right-alt-icon" viewBox="0 -960 960 960">
      <path d="m560-240-56-58 142-142H160v-80h486L504-662l56-58 240 240-240 240Z"/>
    </symbol>
    <symbol id="phone-icon" viewBox="0 -960 960 960">
      <path d="M798-120q-125 0-247-54.5T329-329Q229-429 174.5-551T120-798q0-18 12-30t30-12h162q14 0 25 9.5t13 22.5l26 140q2 16-1 27t-11 19l-97 98q20 37 47.5 71.5T387-386q31 31 65 57.5t72 48.5l94-94q9-9 23.5-13.5T670-390l138 28q14 4 23 14.5t9 23.5v162q0 18-12 30t-30 12ZM241-600l66-66-17-94h-89q5 41 14 81t26 79Zm358 358q39 17 79.5 27t81.5 13v-88l-94-19-67 67ZM241-600Zm358 358Z"/>
    </symbol>
    <symbol id="chat-info-icon" viewBox="0 -960 960 960">
      <path d="M480-680q17 0 28.5-11.5T520-720q0-17-11.5-28.5T480-760q-17 0-28.5 11.5T440-720q0 17 11.5 28.5T480-680Zm-40 320h80v-240h-80v240ZM80-80v-720q0-33 23.5-56.5T160-880h640q33 0 56.5 23.5T880-800v480q0 33-23.5 56.5T800-240H240L80-80Zm126-240h594v-480H160v525l46-45Zm-46 0v-480 480Z"/>
    </symbol>
    <symbol id="chat-icon" viewBox="0 -960 960 960">
      <path d="M240-400h320v-80H240v80Zm0-120h480v-80H240v80Zm0-120h480v-80H240v80ZM80-80v-720q0-33 23.5-56.5T160-880h640q33 0 56.5 23.5T880-800v480q0 33-23.5 56.5T800-240H240L80-80Zm126-240h594v-480H160v525l46-45Zm-46 0v-480 480Z"/>
    </symbol>
    <symbol id="image-icon" viewBox="0 -960 960 960">
      <path d="M200-120q-33 0-56.5-23.5T120-200v-560q0-33 23.5-56.5T200-840h560q33 0 56.5 23.5T840-760v560q0 33-23.5 56.5T760-120H200Zm0-80h560v-560H200v560Zm40-80h480L570-480 450-320l-90-120-120 160Zm-40 80v-560 560Zm182.5-377.5Q400-595 400-620t-17.5-42.5Q365-680 340-680t-42.5 17.5Q280-645 280-620t17.5 42.5Q315-560 340-560t42.5-17.5Z"/>
    </symbol>
    <symbol id="news-icon" viewBox="0 -960 960 960">
      <path d="M200-120q-33 0-56.5-23.5T120-200v-560q0-33 23.5-56.5T200-840h407q16 0 30.5 6t25.5 17l154 154q11 11 17 25.5t6 30.5v407q0 33-23.5 56.5T760-120H200Zm0-80h560v-400H640q-17 0-28.5-11.5T600-640v-120H200v560Zm440-80q17 0 28.5-11.5T680-320q0-17-11.5-28.5T640-360H320q-17 0-28.5 11.5T280-320q0 17 11.5 28.5T320-280h320ZM440-600q17 0 28.5-11.5T480-640q0-17-11.5-28.5T440-680H320q-17 0-28.5 11.5T280-640q0 17 11.5 28.5T320-600h120Zm200 160q17 0 28.5-11.5T680-480q0-17-11.5-28.5T640-520H320q-17 0-28.5 11.5T280-480q0 17 11.5 28.5T320-440h320ZM200-760v160-160 560-560Z"/>
    </symbol>
    <symbol id="chevron-left-icon" viewBox="0 -960 960 960">
      <path d="m432-480 156 156q11 11 11 28t-11 28q-11 11-28 11t-28-11L348-452q-6-6-8.5-13t-2.5-15q0-8 2.5-15t8.5-13l184-184q11-11 28-11t28 11q11 11 11 28t-11 28L432-480Z"/>
    </symbol>
    <symbol id="chevron-right-icon" viewBox="0 -960 960 960">
      <path d="M504-480 348-636q-11-11-11-28t11-28q11-11 28-11t28 11l184 184q6 6 8.5 13t2.5 15q0 8-2.5 15t-8.5 13L404-268q-11 11-28 11t-28-11q-11-11-11-28t11-28l156-156Z"/>
    </symbol>
    <symbol id="trophy-icon" viewBox="0 -960 960 960">
      <path d="M536.5-543.5Q560-567 560-600t-23.5-56.5Q513-680 480-680t-56.5 23.5Q400-633 400-600t23.5 56.5Q447-520 480-520t56.5-23.5ZM440-200v-124q-49-11-87.5-41.5T296-442q-75-9-125.5-65.5T120-640v-40q0-33 23.5-56.5T200-760h80q0-33 23.5-56.5T360-840h240q33 0 56.5 23.5T680-760h80q33 0 56.5 23.5T840-680v40q0 76-50.5 132.5T664-442q-18 46-56.5 76.5T520-324v124h120q17 0 28.5 11.5T680-160q0 17-11.5 28.5T640-120H320q-17 0-28.5-11.5T280-160q0-17 11.5-28.5T320-200h120ZM280-528v-152h-80v40q0 38 22 68.5t58 43.5Zm285 93q35-35 35-85v-240H360v240q0 50 35 85t85 35q50 0 85-35Zm115-93q36-13 58-43.5t22-68.5v-40h-80v152Zm-200-52Z"/>
    </symbol>
    <symbol id="award-icon" viewBox="0 -960 960 960">
      <path d="m480-483-68 52q-6 5-12 .5t-4-11.5l26-84-70-56q-5-5-3-11.5t9-6.5h86l26-82q2-7 10-7t10 7l26 82h85q7 0 9.5 6.5T608-582l-71 56 26 84q2 7-4 11.5t-12-.5l-67-52Zm0 363L293-58q-20 7-36.5-5T240-95v-254q-38-42-59-96t-21-115q0-134 93-227t227-93q134 0 227 93t93 227q0 61-21 115t-59 96v254q0 20-16.5 32T667-58l-187-62Zm170-270q70-70 70-170t-70-170q-70-70-170-70t-170 70q-70 70-70 170t70 170q70 70 170 70t170-70ZM320-159l160-41 160 41v-124q-35 20-75.5 31.5T480-240q-44 0-84.5-11.5T320-283v124Zm160-62Z"/>
    </symbol>
    <symbol id="star-icon" viewBox="0 -960 960 960">
      <path d="m354-287 126-76 126 77-33-144 111-96-146-13-58-136-58 135-146 13 111 97-33 143Zm126 18L314-169q-11 7-23 6t-21-8q-9-7-14-17.5t-2-23.5l44-189-147-127q-10-9-12.5-20.5T140-571q4-11 12-18t22-9l194-17 75-178q5-12 15.5-18t21.5-6q11 0 21.5 6t15.5 18l75 178 194 17q14 2 22 9t12 18q4 11 1.5 22.5T809-528L662-401l44 189q3 13-2 23.5T690-171q-9 7-21 8t-23-6L480-269Zm0-201Z"/>
    </symbol>
    <symbol id="shield-icon" viewBox="0 -960 960 960">
      <path d="M467-85q-6-1-12-3-135-45-215-166.5T160-516v-189q0-25 14.5-45t37.5-29l240-90q14-5 28-5t28 5l240 90q23 9 37.5 29t14.5 45v189q0 140-80 261.5T505-88q-6 2-12 3t-13 1q-7 0-13-1Zm13-79q104-33 172-132t68-220v-189l-240-90-240 90v189q0 121 68 220t172 132Zm0-316Z"/>
    </symbol>
    <symbol id="chevron-down-icon" viewBox="0 -960 960 960">
      <path d="M465-363.5q-7-2.5-13-8.5L268-556q-11-11-11-28t11-28q11-11 28-11t28 11l156 156 156-156q11-11 28-11t28 11q11 11 11 28t-11 28L508-372q-6 6-13 8.5t-15 2.5q-8 0-15-2.5Z"/>
    </symbol>
    <symbol id="filter-icon" viewBox="0 -960 960 960">
      <path d="M451.5-131.5Q440-143 440-160v-160q0-17 11.5-28.5T480-360q17 0 28.5 11.5T520-320v40h280q17 0 28.5 11.5T840-240q0 17-11.5 28.5T800-200H520v40q0 17-11.5 28.5T480-120q-17 0-28.5-11.5ZM160-200q-17 0-28.5-11.5T120-240q0-17 11.5-28.5T160-280h160q17 0 28.5 11.5T360-240q0 17-11.5 28.5T320-200H160Zm131.5-171.5Q280-383 280-400v-40H160q-17 0-28.5-11.5T120-480q0-17 11.5-28.5T160-520h120v-40q0-17 11.5-28.5T320-600q17 0 28.5 11.5T360-560v160q0 17-11.5 28.5T320-360q-17 0-28.5-11.5ZM480-440q-17 0-28.5-11.5T440-480q0-17 11.5-28.5T480-520h320q17 0 28.5 11.5T840-480q0 17-11.5 28.5T800-440H480Zm131.5-171.5Q600-623 600-640v-160q0-17 11.5-28.5T640-840q17 0 28.5 11.5T680-800v40h120q17 0 28.5 11.5T840-720q0 17-11.5 28.5T800-680H680v40q0 17-11.5 28.5T640-600q-17 0-28.5-11.5ZM160-680q-17 0-28.5-11.5T120-720q0-17 11.5-28.5T160-760h320q17 0 28.5 11.5T520-720q0 17-11.5 28.5T480-680H160Z"/>
    </symbol>
    <symbol id="sort-icon" viewBox="0 -960 960 960">
      <path d="M160-240q-17 0-28.5-11.5T120-280q0-17 11.5-28.5T160-320h160q17 0 28.5 11.5T360-280q0 17-11.5 28.5T320-240H160Zm0-200q-17 0-28.5-11.5T120-480q0-17 11.5-28.5T160-520h400q17 0 28.5 11.5T600-480q0 17-11.5 28.5T560-440H160Zm0-200q-17 0-28.5-11.5T120-680q0-17 11.5-28.5T160-720h640q17 0 28.5 11.5T840-680q0 17-11.5 28.5T800-640H160Z"/>
    </symbol>
    <symbol id="heart-icon" viewBox="0 -960 960 960">
      <path d="M451.5-152q-14.5-5-25.5-16l-69-63q-106-97-191.5-192.5T80-634q0-94 63-157t157-63q53 0 100 22.5t80 61.5q33-39 80-61.5T660-854q94 0 157 63t63 157q0 115-85 211T602-230l-68 62q-11 11-25.5 16t-28.5 5q-14 0-28.5-5ZM442-690q-29-41-62-62.5T300-774q-60 0-100 40t-40 100q0 52 37 110.5T285.5-410q51.5 55 106 103t88.5 79q34-31 88.5-79t106-103Q726-465 763-523.5T800-634q0-60-40-100t-100-40q-47 0-80 21.5T518-690q-7 10-17 15t-21 5q-11 0-21-5t-17-15Zm38 189Z"/>
    </symbol>
    <symbol id="heart-filled-icon" viewBox="0 0 24 24">
      <path d="M11.3,20.7c-0.2-0.1-0.5-0.2-0.6-0.4l-1.7-1.6c-1.8-1.6-3.4-3.2-4.8-4.8S2,10.6,2,8.7c0-1.6,0.5-2.9,1.6-3.9s2.4-1.6,3.9-1.6c0.9,0,1.7,0.2,2.5,0.6s1.4,0.9,2,1.5c0.6-0.7,1.2-1.2,2-1.5s1.6-0.6,2.5-0.6c1.6,0,2.9,0.5,3.9,1.6C21.5,5.8,22,7.1,22,8.7c0,1.9-0.7,3.7-2.1,5.3s-3,3.2-4.8,4.8l-1.7,1.5c-0.2,0.2-0.4,0.3-0.6,0.4c-0.2,0.1-0.5,0.1-0.7,0.1S11.5,20.8,11.3,20.7z"/>
    </symbol>
    <symbol id="thumb-up-icon" viewBox="0 -960 960 960">
      <path d="M840-640q32 0 56 24t24 56v80q0 7-2 15t-4 15L794-168q-9 20-30 34t-44 14H280v-520l240-238q15-15 35.5-17.5T595-888q19 10 28 28t4 37l-45 183h258Zm-480 34v406h360l120-280v-80H480l54-220-174 174ZM160-120q-33 0-56.5-23.5T80-200v-360q0-33 23.5-56.5T160-640h120v80H160v360h120v80H160Zm200-80v-406 406Z"/>
    </symbol>
    <symbol id="clock-icon" viewBox="0 -960 960 960">
      <path d="M520-496v-144q0-17-11.5-28.5T480-680q-17 0-28.5 11.5T440-640v159q0 8 3 15.5t9 13.5l132 132q11 11 28 11t28-11q11-11 11-28t-11-28L520-496ZM480-80q-83 0-156-31.5T197-197q-54-54-85.5-127T80-480q0-83 31.5-156T197-763q54-54 127-85.5T480-880q83 0 156 31.5T763-763q54 54 85.5 127T880-480q0 83-31.5 156T763-197q-54 54-127 85.5T480-80Zm0-400Zm0 320q133 0 226.5-93.5T800-480q0-133-93.5-226.5T480-800q-133 0-226.5 93.5T160-480q0 133 93.5 226.5T480-160Z"/>
    </symbol>
</svg>
